<svg viewBox="0 0 164.05 62.55" xmlns="http://www.w3.org/2000/svg"><path d="m4.71 31.74a19.25 19.25 0 0 0 .82 5.64 13.48 13.48 0 0 0 2.39 4.62 11.43 11.43 0 0 0 4 3.13 12.68 12.68 0 0 0 5.59 1.17 12.5 12.5 0 0 0 7.49-2.21 10.53 10.53 0 0 0 4.12-6.25h4.88a22 22 0 0 1 -2.1 4.86 15.13 15.13 0 0 1 -3.31 3.91 14.52 14.52 0 0 1 -4.72 2.59 19.75 19.75 0 0 1 -6.34.92 19.19 19.19 0 0 1 -7.88-1.49 14.61 14.61 0 0 1 -5.45-4.08 17 17 0 0 1 -3.2-6.1 26.85 26.85 0 0 1 -1-7.56 23 23 0 0 1 1.22-7.59 19 19 0 0 1 3.46-6.21 16 16 0 0 1 5.49-4.19 17 17 0 0 1 7.36-1.52q7.89 0 12.38 5.21t4.42 15.15zm24.91-3.55a16.17 16.17 0 0 0 -.78-5.07 11.67 11.67 0 0 0 -2.28-4.12 10.9 10.9 0 0 0 -3.79-2.76 12.71 12.71 0 0 0 -5.24-1 11.64 11.64 0 0 0 -9 3.9 14.06 14.06 0 0 0 -2.53 4.09 18.73 18.73 0 0 0 -1.26 5z"/><path d="m56.47 31.74a19.24 19.24 0 0 0 .81 5.64 13.5 13.5 0 0 0 2.4 4.62 11.43 11.43 0 0 0 4 3.13 12.75 12.75 0 0 0 5.6 1.17 12.41 12.41 0 0 0 7.44-2.2 10.5 10.5 0 0 0 4.13-6.25h5a22.66 22.66 0 0 1 -2.14 4.86 15 15 0 0 1 -3.32 3.91 14.37 14.37 0 0 1 -4.71 2.59 19.75 19.75 0 0 1 -6.34.92 19.19 19.19 0 0 1 -7.88-1.49 14.61 14.61 0 0 1 -5.46-4.09 17 17 0 0 1 -3.17-6.1 26.85 26.85 0 0 1 -1-7.56 23.29 23.29 0 0 1 1.17-7.59 19 19 0 0 1 3.47-6.21 16 16 0 0 1 5.53-4.19 17 17 0 0 1 7.36-1.52q7.89 0 12.38 5.21t4.42 15.15zm24.91-3.55a16.17 16.17 0 0 0 -.78-5.07 11.75 11.75 0 0 0 -2.28-4.12 10.72 10.72 0 0 0 -3.8-2.76 12.5 12.5 0 0 0 -5.23-1 11.62 11.62 0 0 0 -9 3.9 13.9 13.9 0 0 0 -2.54 4.12 18.73 18.73 0 0 0 -1.26 5z"/><path d="m40.14 50.12v-50.12h5v50.12z"/><path d="m87.81 13.36h5.59l14.43 31.51 14.43-31.51h5.59l-17.27 36.76h-5.76z"/><path d="m120.73 50.12h13.82q3.93-8.67 7.84-17.35-3.45-7.67-6.91-15.32z" fill="#00aeef"/><path d="m164.05 50.12-14.75-32.7q-3.45 7.66-6.91 15.32 3.93 8.67 7.84 17.35z" fill="#ec008c"/><path d="m146.27 10.42-3.88-8.66q-1.94 4.34-3.88 8.66l-3 7q3.45 7.66 6.91 15.32 3.45-7.67 6.91-15.32z" fill="#040203"/><path d="m72.57 57a2 2 0 0 1 .66 1.32h-.76a1.44 1.44 0 0 0 -1.58-1.21 1.7 1.7 0 0 0 -1.35.6 2.77 2.77 0 0 0 -.54 1.85 2.71 2.71 0 0 0 .47 1.65 1.61 1.61 0 0 0 1.39.63 1.44 1.44 0 0 0 1.29-.66 2.36 2.36 0 0 0 .35-.92h.77a2.62 2.62 0 0 1 -.67 1.53 2.63 2.63 0 0 1 -3.51.13 3.22 3.22 0 0 1 -.89-2.49 3.26 3.26 0 0 1 .67-2.1 2.44 2.44 0 0 1 2-.88 2.34 2.34 0 0 1 1.7.55z"/><path d="m79.06 57.43a3.19 3.19 0 0 1 .57 2 3.42 3.42 0 0 1 -.63 2.11 2.59 2.59 0 0 1 -2.19 1 2.66 2.66 0 0 1 -2.1-.88 3.74 3.74 0 0 1 -.1-4.15 2.51 2.51 0 0 1 2.21-1.07 2.64 2.64 0 0 1 2.24.99zm-.69 3.68a3.21 3.21 0 0 0 .46-1.71 2.42 2.42 0 0 0 -.54-1.64 1.82 1.82 0 0 0 -1.45-.62 1.88 1.88 0 0 0 -1.46.62 2.57 2.57 0 0 0 -.57 1.81 2.62 2.62 0 0 0 .49 1.62 1.81 1.81 0 0 0 1.57.66 1.64 1.64 0 0 0 1.5-.74z"/><path d="m80.54 56.6h1.12l1.66 4.89 1.68-4.89h1.12v5.78h-.75v-3.38c0-.12 0-.31 0-.59v-.87l-1.64 4.87h-.78l-1.66-4.87v.17.65s0 .5 0 .64v3.41h-.75z"/><path d="m87.25 56.6h1.12l1.63 4.89 1.65-4.89h1.11v5.78h-.74v-4c0-.27 0-.56 0-.87l-1.65 4.87h-.77l-1.6-4.87v.17.65s0 .5 0 .64v3.41h-.75z"/><path d="m94.15 56.6h.79v5.78h-.79z"/><path d="m100.41 56.6v.69h-1.94v5.09h-.79v-5.09h-2v-.69z"/><path d="m105.33 56.6v.69h-1.94v5.09h-.79v-5.09h-1.95v-.69z"/><path d="m106.13 56.6h4.19v.71h-3.43v1.75h3.17v.67h-3.17v2h3.49v.69h-4.25z"/><path d="m111.46 56.6h2.31a2.15 2.15 0 0 1 1.82.85 3.12 3.12 0 0 1 .58 1.95 3.93 3.93 0 0 1 -.34 1.67 2.11 2.11 0 0 1 -2.07 1.31h-2.3zm2.15 5.11a2.22 2.22 0 0 0 .64-.08 1.44 1.44 0 0 0 .75-.63 2.56 2.56 0 0 0 .33-.9 3.38 3.38 0 0 0 .06-.6 2.84 2.84 0 0 0 -.42-1.67 1.52 1.52 0 0 0 -1.34-.6h-1.36v4.44z"/><path d="m117.31 61.52h.82v.86h-.82z"/><path d="m119.51 56.6h2.31a2.15 2.15 0 0 1 1.82.85 3.12 3.12 0 0 1 .58 1.95 3.93 3.93 0 0 1 -.34 1.67 2.11 2.11 0 0 1 -2.07 1.31h-2.3zm2.16 5.11a2.15 2.15 0 0 0 .63-.08 1.51 1.51 0 0 0 .7-.63 2.38 2.38 0 0 0 .32-.9 3.38 3.38 0 0 0 .06-.6 2.84 2.84 0 0 0 -.42-1.67 1.51 1.51 0 0 0 -1.34-.6h-1.32v4.44z"/><path d="m125.37 56.6h4.19v.71h-3.43v1.75h3.17v.67h-3.17v2h3.49v.69h-4.25z"/><path d="m130.66 56.6h.79v5.09h2.89v.69h-3.68z"/><path d="m135.32 56.6h.79v5.78h-.79z"/><path d="m137.84 56.6 1.65 4.92 1.64-4.92h.87l-2.11 5.78h-.83l-2.06-5.78z"/><path d="m142.82 56.6h4.18v.71h-3.42v1.75h3.17v.67h-3.17v2h3.48v.69h-4.25z"/><path d="m148.21 56.6h2.63a2.55 2.55 0 0 1 1.07.2 1.36 1.36 0 0 1 .8 1.36 1.43 1.43 0 0 1 -.82 1.38 1.11 1.11 0 0 1 .51.36 1.23 1.23 0 0 1 .19.73v.77a2.29 2.29 0 0 0 .06.49.46.46 0 0 0 .25.36v.13h-1a.53.53 0 0 1 -.06-.19 3.06 3.06 0 0 1 0-.46l-.05-1a.81.81 0 0 0 -.41-.76 1.61 1.61 0 0 0 -.68-.11h-1.7v2.48h-.79zm2.55 2.65a1.4 1.4 0 0 0 .84-.22.91.91 0 0 0 .31-.8.85.85 0 0 0 -.43-.84 1.4 1.4 0 0 0 -.62-.12h-1.86v2z"/><path d="m154 56.6h4.19v.71h-3.43v1.75h3.17v.67h-3.17v2h3.49v.69h-4.25z"/><path d="m159.34 56.6h2.31a2.15 2.15 0 0 1 1.82.85 3.12 3.12 0 0 1 .58 1.95 3.93 3.93 0 0 1 -.34 1.67 2.11 2.11 0 0 1 -2.07 1.31h-2.3zm2.16 5.11a2.27 2.27 0 0 0 .64-.08 1.48 1.48 0 0 0 .73-.59 2.38 2.38 0 0 0 .32-.9 3.38 3.38 0 0 0 .06-.6 2.84 2.84 0 0 0 -.42-1.67 1.51 1.51 0 0 0 -1.34-.6h-1.36v4.44z"/></svg>